<svg xmlns="http://www.w3.org/2000/svg" viewBox="0 0 760 168" role="img" aria-labelledby="title desc">
  <title id="title">Organização Financeira na Prática</title>
  <desc id="desc">Logo do aplicativo com simbolo financeiro e nome do projeto.</desc>
  <defs>
    <linearGradient id="markGradient" x1="24" y1="18" x2="128" y2="136" gradientUnits="userSpaceOnUse">
      <stop offset="0" stop-color="#0f9f6e"/>
      <stop offset="1" stop-color="#2563eb"/>
    </linearGradient>
    <filter id="softShadow" x="-16%" y="-16%" width="132%" height="132%">
      <feDropShadow dx="0" dy="8" stdDeviation="8" flood-color="#111827" flood-opacity=".14"/>
    </filter>
  </defs>
  <g filter="url(#softShadow)">
    <rect x="14" y="14" width="132" height="132" rx="30" fill="#ffffff"/>
    <rect x="24" y="24" width="112" height="112" rx="24" fill="url(#markGradient)"/>
    <path d="M48 103h64" stroke="#e8f8f1" stroke-width="9" stroke-linecap="round"/>
    <path d="M50 94l20-20 18 13 30-35" fill="none" stroke="#f59e0b" stroke-width="10" stroke-linecap="round" stroke-linejoin="round"/>
    <circle cx="50" cy="94" r="6" fill="#f59e0b"/>
    <circle cx="88" cy="87" r="6" fill="#f59e0b"/>
    <circle cx="118" cy="52" r="6" fill="#f59e0b"/>
    <path d="M56 113c9 8 22 13 35 13 14 0 26-5 35-13" fill="none" stroke="#e8f8f1" stroke-width="7" stroke-linecap="round"/>
    <text x="58" y="69" fill="#ffffff" font-family="Arial, Segoe UI, sans-serif" font-size="28" font-weight="800">R$</text>
  </g>
  <g font-family="Arial, Segoe UI, sans-serif">
    <text x="174" y="72" fill="#111827" font-size="38" font-weight="800">Organização Financeira</text>
    <text x="176" y="108" fill="#2563eb" font-size="25" font-weight="700">na Prática</text>
    <path d="M176 126h230" stroke="#d97706" stroke-width="5" stroke-linecap="round"/>
  </g>
</svg>
